<svg width="100%" height="100%" viewBox="0 0 152 27" fill="none"
     xmlns="http://www.w3.org/2000/svg">
  <path
    d="M93.8788 3.69625L94.0022 3.43978C94.5629 3.4468 95.019 3.5241 95.3742 3.67869C95.7293 3.83327 95.991 4.03705 96.1555 4.29704C96.32 4.55703 96.406 4.84864 96.406 5.17538C96.406 5.53023 96.3163 5.84292 96.1368 6.11344C95.9574 6.38397 95.6957 6.59829 95.348 6.75639C95.0003 6.91449 94.5742 6.99179 94.0582 6.99179H89.3478L89.9049 3.58383L89.3478 0.351536H93.89C94.5442 0.351536 95.0489 0.495583 95.4003 0.780165C95.7555 1.06826 95.9312 1.46176 95.9312 1.96417C95.9312 2.23118 95.8639 2.48766 95.7293 2.74062C95.5947 2.99358 95.3779 3.20438 95.0788 3.37654C94.7798 3.55221 94.3797 3.65761 93.8788 3.69977V3.69625ZM90.6002 6.66153L90.118 6.0502H93.9162C94.305 6.0502 94.6078 5.96588 94.8246 5.79724C95.0414 5.6286 95.1499 5.38969 95.1499 5.077C95.1499 4.74675 95.0228 4.49027 94.7685 4.30758C94.5143 4.12488 94.1368 4.03354 93.6433 4.03354H90.5815V3.1306H93.5199C93.8526 3.1306 94.1293 3.04277 94.3498 2.87061C94.5704 2.69495 94.6788 2.4455 94.6788 2.12227C94.6788 1.87985 94.5891 1.67958 94.4059 1.525C94.2227 1.3669 93.961 1.2896 93.6134 1.2896H90.118L90.6002 0.678277L91.1012 3.58383L90.6002 6.66504V6.66153Z"
    fill="white"/>
  <path
    d="M99.6621 7.1148C99.1724 7.1148 98.7575 7.01994 98.4135 6.83022C98.0696 6.6405 97.8079 6.36997 97.6247 6.01512C97.4415 5.66027 97.3518 5.23867 97.3518 4.75031V1.97827H98.578V4.57113C98.578 5.0911 98.7051 5.4846 98.9593 5.75513C99.2135 6.02214 99.5799 6.15917 100.058 6.15917C100.406 6.15917 100.701 6.0889 100.948 5.94836C101.195 5.80783 101.389 5.60405 101.528 5.34055C101.666 5.07705 101.733 4.77139 101.733 4.42357L102.156 4.64491C102.107 5.15786 101.969 5.60054 101.741 5.96944C101.516 6.33835 101.225 6.62293 100.866 6.81968C100.507 7.01643 100.107 7.1148 99.6584 7.1148H99.6621ZM102.047 6.99183L101.737 5.18597V1.98178H102.963V5.36515L103.273 6.99535H102.047V6.99183Z"
    fill="white"/>
  <path
    d="M109.849 5.46672C109.849 5.804 109.748 6.09561 109.546 6.34506C109.345 6.59451 109.042 6.78423 108.631 6.91773C108.223 7.05124 107.711 7.118 107.094 7.118C106.477 7.118 105.909 7.04421 105.445 6.89314C104.982 6.74207 104.619 6.53127 104.365 6.25722C104.111 5.98318 103.976 5.66698 103.954 5.3051H105.199C105.236 5.49482 105.341 5.65995 105.505 5.804C105.67 5.94805 105.89 6.06047 106.163 6.13777C106.436 6.21506 106.75 6.25371 107.102 6.25371C107.61 6.25371 107.991 6.1975 108.249 6.08156C108.507 5.96561 108.634 5.78995 108.634 5.55455C108.634 5.39645 108.548 5.27348 108.376 5.19268C108.204 5.10836 107.879 5.04863 107.401 5.00647L106.354 4.91863C105.789 4.87296 105.341 4.77459 105.016 4.63054C104.69 4.48649 104.455 4.30731 104.316 4.10002C104.178 3.89273 104.111 3.66788 104.111 3.43248C104.111 3.09169 104.223 2.80359 104.451 2.57522C104.679 2.34685 104.993 2.16767 105.393 2.04822C105.797 1.92876 106.264 1.86552 106.799 1.86552C107.333 1.86552 107.845 1.9393 108.279 2.08335C108.713 2.2274 109.057 2.42766 109.315 2.68414C109.573 2.94061 109.718 3.23925 109.748 3.57302H108.503C108.477 3.436 108.403 3.306 108.283 3.17952C108.16 3.05304 107.976 2.94764 107.726 2.85981C107.479 2.77548 107.146 2.72981 106.731 2.72981C106.29 2.72981 105.946 2.78251 105.7 2.88791C105.453 2.99331 105.326 3.15141 105.326 3.3587C105.326 3.4887 105.401 3.59761 105.554 3.68896C105.703 3.78031 105.984 3.84355 106.391 3.87868L107.737 3.99462C108.279 4.04029 108.702 4.13164 109.004 4.26515C109.307 4.39866 109.524 4.5673 109.651 4.77459C109.778 4.98187 109.838 5.21376 109.838 5.47374L109.849 5.46672Z"
    fill="white"/>
  <path
    d="M111.453 1.314C111.221 1.314 111.031 1.25428 110.877 1.13131C110.728 1.01185 110.649 0.853754 110.649 0.657005C110.649 0.460257 110.724 0.305669 110.877 0.182701C111.027 0.0632469 111.221 7.62939e-06 111.453 7.62939e-06C111.685 7.62939e-06 111.883 0.0597336 112.033 0.182701C112.178 0.302155 112.253 0.460257 112.253 0.657005C112.253 0.853754 112.178 1.00834 112.033 1.13131C111.883 1.25076 111.692 1.314 111.453 1.314ZM110.84 1.94289L111.453 2.0483L112.066 1.94289V6.99159H110.84V1.94289Z"
    fill="white"/>
  <path
    d="M113.109 1.97747H114.335L114.657 3.78334V6.98753H113.431V3.6147L113.109 1.97747ZM116.773 1.85451C117.274 1.85451 117.704 1.94937 118.055 2.13909C118.406 2.32881 118.676 2.59934 118.859 2.95068C119.046 3.30201 119.135 3.72713 119.135 4.22251V6.99455H117.909V4.40872C117.909 3.88172 117.778 3.48822 117.52 3.21769C117.262 2.94716 116.877 2.81365 116.376 2.81365C116.033 2.81365 115.73 2.88743 115.468 3.03148C115.206 3.17553 115.004 3.3793 114.866 3.63929C114.724 3.89928 114.653 4.20495 114.653 4.55277L114.219 4.33143C114.275 3.81145 114.421 3.36877 114.653 3.00338C114.885 2.63799 115.184 2.35692 115.547 2.15666C115.909 1.95991 116.32 1.86153 116.773 1.86153V1.85451Z"
    fill="white"/>
  <path
    d="M123.278 7.11401C122.657 7.11401 122.104 7.00509 121.618 6.78024C121.136 6.5589 120.754 6.24972 120.478 5.85622C120.201 5.46273 120.063 4.99896 120.063 4.47547C120.063 3.95198 120.194 3.49876 120.451 3.10878C120.709 2.71879 121.072 2.40962 121.536 2.18828C121.999 1.96694 122.526 1.85451 123.124 1.85451C123.723 1.85451 124.238 1.98099 124.672 2.23044C125.106 2.47989 125.446 2.83473 125.685 3.28796C125.925 3.74118 126.044 4.27521 126.044 4.89005H121.023V4.01171H125.431L124.818 4.33845C124.799 4.0082 124.717 3.72361 124.567 3.48822C124.422 3.25282 124.224 3.07013 123.973 2.94365C123.726 2.81717 123.431 2.75393 123.091 2.75393C122.732 2.75393 122.422 2.82068 122.152 2.9577C121.883 3.09472 121.678 3.28445 121.524 3.53038C121.375 3.77632 121.296 4.06441 121.296 4.40169C121.296 4.77411 121.386 5.09383 121.566 5.36787C121.745 5.6384 121.999 5.8492 122.328 5.99324C122.657 6.13729 123.05 6.21107 123.502 6.21107C123.91 6.21107 124.328 6.15135 124.754 6.02838C125.181 5.90541 125.558 5.73677 125.887 5.51894V6.35161C125.558 6.587 125.162 6.77321 124.695 6.91023C124.227 7.04725 123.749 7.11401 123.267 7.11401H123.278Z"
    fill="white"/>
  <path
    d="M132.575 5.46672C132.575 5.804 132.474 6.09561 132.273 6.34506C132.071 6.59451 131.768 6.78423 131.357 6.91773C130.949 7.05124 130.437 7.118 129.82 7.118C129.203 7.118 128.635 7.04421 128.171 6.89314C127.708 6.74207 127.345 6.53127 127.095 6.25722C126.841 5.98318 126.702 5.66698 126.684 5.3051H127.928C127.966 5.49482 128.067 5.65995 128.235 5.804C128.403 5.94805 128.62 6.06047 128.893 6.13777C129.166 6.21506 129.48 6.25371 129.831 6.25371C130.34 6.25371 130.725 6.1975 130.983 6.08156C131.241 5.96561 131.368 5.78995 131.368 5.55455C131.368 5.39645 131.282 5.27348 131.11 5.19268C130.938 5.11187 130.613 5.04863 130.134 5.00647L129.087 4.91863C128.523 4.87296 128.074 4.77459 127.749 4.63054C127.42 4.48649 127.188 4.30731 127.05 4.10002C126.912 3.88922 126.844 3.66788 126.844 3.43248C126.844 3.09169 126.956 2.80359 127.185 2.57522C127.413 2.34334 127.727 2.16767 128.127 2.04822C128.527 1.92876 128.998 1.86552 129.532 1.86552C130.067 1.86552 130.579 1.9393 131.013 2.08335C131.446 2.2274 131.79 2.42766 132.048 2.68414C132.306 2.94061 132.448 3.23925 132.482 3.57302H131.237C131.211 3.436 131.14 3.306 131.016 3.17952C130.893 3.05304 130.71 2.94764 130.459 2.85981C130.213 2.77548 129.88 2.72981 129.465 2.72981C129.024 2.72981 128.68 2.78251 128.433 2.88791C128.186 2.99331 128.059 3.15141 128.059 3.3587C128.059 3.4887 128.134 3.59761 128.287 3.68896C128.437 3.78031 128.717 3.84355 129.125 3.87868L130.471 3.99462C131.013 4.04029 131.431 4.13164 131.738 4.26515C132.041 4.39866 132.258 4.5673 132.385 4.77459C132.512 4.98187 132.572 5.21376 132.572 5.47374L132.575 5.46672Z"
    fill="white"/>
  <path
    d="M139.087 5.46672C139.087 5.804 138.987 6.09561 138.785 6.34506C138.583 6.59451 138.28 6.78423 137.869 6.91773C137.461 7.05124 136.949 7.118 136.332 7.118C135.715 7.118 135.147 7.04421 134.684 6.89314C134.22 6.74207 133.857 6.53127 133.607 6.25722C133.353 5.98318 133.214 5.66698 133.196 5.3051H134.441C134.478 5.49482 134.579 5.65995 134.747 5.804C134.915 5.94805 135.132 6.06047 135.405 6.13777C135.678 6.21506 135.992 6.25371 136.343 6.25371C136.852 6.25371 137.237 6.1975 137.495 6.08156C137.753 5.96561 137.88 5.78995 137.88 5.55455C137.88 5.39645 137.794 5.27348 137.622 5.19268C137.45 5.11187 137.125 5.04863 136.646 5.00647L135.6 4.91863C135.035 4.87296 134.586 4.77459 134.261 4.63054C133.932 4.48649 133.7 4.30731 133.562 4.10002C133.424 3.88922 133.356 3.66788 133.356 3.43248C133.356 3.09169 133.469 2.80359 133.697 2.57522C133.925 2.34334 134.239 2.16767 134.639 2.04822C135.039 1.92876 135.51 1.86552 136.044 1.86552C136.579 1.86552 137.091 1.9393 137.525 2.08335C137.958 2.2274 138.302 2.42766 138.56 2.68414C138.818 2.94061 138.96 3.23925 138.994 3.57302H137.749C137.723 3.436 137.652 3.306 137.529 3.17952C137.405 3.05304 137.222 2.94764 136.972 2.85981C136.725 2.77548 136.392 2.72981 135.977 2.72981C135.536 2.72981 135.192 2.78251 134.945 2.88791C134.699 2.99331 134.571 3.15141 134.571 3.3587C134.571 3.4887 134.646 3.59761 134.8 3.68896C134.949 3.78031 135.229 3.84355 135.637 3.87868L136.983 3.99462C137.525 4.04029 137.944 4.13164 138.25 4.26515C138.553 4.39866 138.77 4.5673 138.897 4.77459C139.024 4.98187 139.084 5.21376 139.084 5.47374L139.087 5.46672Z"
    fill="white"/>
  <path d="M89.5909 9.93895H90.8358V16.5792H89.5909V9.93895Z"
        fill="white"/>
  <path
    d="M91.976 11.5697H93.2022L93.5237 13.3756V16.5798H92.2975V13.207L91.976 11.5697ZM95.6397 11.4468C96.1406 11.4468 96.5705 11.5416 96.9219 11.7314C97.2734 11.9211 97.5425 12.1916 97.7257 12.5429C97.9126 12.8943 98.0023 13.3194 98.0023 13.8148V16.5868H96.7761V14.001C96.7761 13.474 96.6453 13.0805 96.3836 12.81C96.1219 12.5394 95.7406 12.4059 95.2397 12.4059C94.892 12.4059 94.5892 12.4797 94.3312 12.6238C94.0695 12.7678 93.8714 12.9716 93.7293 13.2316C93.5873 13.4916 93.5162 13.7972 93.5162 14.145L93.0826 13.9237C93.1387 13.4037 93.2845 12.961 93.5162 12.5956C93.748 12.2303 94.0471 11.9492 94.4097 11.7489C94.7723 11.5522 95.1836 11.4538 95.6359 11.4538L95.6397 11.4468Z"
    fill="white"/>
  <path
    d="M98.5521 12.4542V11.9308L99.6923 11.6567L100.201 10.2584H100.918V11.5689H103.397V12.4542H100.918V14.622C100.918 15.0401 101.016 15.3352 101.206 15.5038C101.397 15.6725 101.711 15.7568 102.145 15.7568C102.421 15.7568 102.664 15.7287 102.881 15.6725C103.094 15.6163 103.3 15.5355 103.494 15.4301V16.3787C103.33 16.456 103.102 16.5297 102.803 16.6C102.504 16.6703 102.197 16.7054 101.883 16.7054C101.363 16.7054 100.941 16.6246 100.619 16.463C100.298 16.3014 100.066 16.0765 99.9166 15.7884C99.7708 15.5038 99.696 15.1736 99.696 14.8012V12.4542H98.5558H98.5521Z"
    fill="white"/>
  <path
    d="M107.109 16.7063C106.488 16.7063 105.935 16.5974 105.449 16.3725C104.967 16.1512 104.586 15.842 104.309 15.4485C104.032 15.055 103.894 14.5912 103.894 14.0677C103.894 13.5443 104.025 13.091 104.283 12.701C104.541 12.3111 104.903 12.0019 105.367 11.7805C105.83 11.5592 106.358 11.4468 106.956 11.4468C107.554 11.4468 108.07 11.5733 108.503 11.8227C108.937 12.0722 109.277 12.427 109.517 12.8802C109.756 13.3334 109.875 13.8675 109.875 14.4823H104.855V13.604H109.262L108.649 13.9307C108.631 13.6005 108.548 13.3159 108.399 13.0805C108.253 12.8451 108.055 12.6624 107.804 12.5359C107.558 12.4094 107.262 12.3462 106.922 12.3462C106.563 12.3462 106.253 12.413 105.984 12.55C105.715 12.687 105.509 12.8767 105.356 13.1226C105.206 13.3686 105.128 13.6567 105.128 13.994C105.128 14.3664 105.217 14.6861 105.397 14.9601C105.576 15.2307 105.83 15.4415 106.159 15.5855C106.488 15.7296 106.881 15.8033 107.333 15.8033C107.741 15.8033 108.16 15.7436 108.586 15.6206C109.012 15.4977 109.389 15.329 109.718 15.1112V15.9439C109.389 16.1793 108.993 16.3655 108.526 16.5025C108.059 16.6395 107.58 16.7063 107.098 16.7063H107.109Z"
    fill="white"/>
  <path d="M110.885 9.76302H112.111V16.5825H110.885V9.76302Z"
        fill="white"/>
  <path d="M113.412 9.76302H114.638V16.5825H113.412V9.76302Z"
        fill="white"/>
  <path
    d="M116.549 10.9056C116.317 10.9056 116.126 10.8459 115.973 10.7229C115.823 10.6035 115.748 10.4454 115.748 10.2486C115.748 10.0519 115.823 9.8973 115.973 9.77433C116.122 9.65488 116.317 9.59164 116.549 9.59164C116.78 9.59164 116.982 9.65137 117.128 9.77433C117.274 9.8973 117.349 10.0519 117.349 10.2486C117.349 10.4454 117.274 10.6 117.128 10.7229C116.982 10.8424 116.788 10.9056 116.549 10.9056ZM115.935 11.5345L116.549 11.6399L117.162 11.5345V16.5832H115.935V11.5345Z"
    fill="white"/>
  <path
    d="M120.743 16.1898C120.253 16.1898 119.812 16.0914 119.424 15.8947C119.035 15.6979 118.724 15.4204 118.5 15.0655C118.276 14.7107 118.16 14.2961 118.16 13.8183C118.16 13.3405 118.272 12.9224 118.5 12.5711C118.728 12.2162 119.035 11.9422 119.424 11.7419C119.812 11.5452 120.253 11.4468 120.743 11.4468C121.106 11.4468 121.446 11.4995 121.756 11.6049C122.067 11.7103 122.347 11.8508 122.594 12.0265C122.84 12.2021 123.054 12.3919 123.226 12.6027C123.397 12.8135 123.532 13.0243 123.626 13.2386C123.719 13.4529 123.768 13.6497 123.768 13.8288C123.768 14.0607 123.697 14.3102 123.551 14.5877C123.405 14.8653 123.199 15.1217 122.934 15.3642C122.669 15.6066 122.347 15.8069 121.977 15.9614C121.607 16.1195 121.196 16.1968 120.743 16.1968V16.1898ZM123.308 15.3501V14.4648L123.353 14.3067V13.3405L123.308 13.1648V11.5697H124.534V15.2447C124.534 15.8877 124.388 16.4252 124.1 16.8609C123.812 17.2965 123.416 17.6197 122.915 17.8411C122.411 18.0589 121.835 18.1678 121.181 18.1678C120.702 18.1678 120.265 18.1081 119.861 17.9922C119.457 17.8727 119.068 17.6935 118.691 17.4511V16.4955C119.076 16.7801 119.468 16.9768 119.88 17.0927C120.291 17.2087 120.698 17.2649 121.106 17.2649C121.824 17.2649 122.369 17.0998 122.743 16.7695C123.117 16.4393 123.308 15.965 123.308 15.3536V15.3501ZM121.121 15.3396C121.566 15.3396 121.977 15.2201 122.351 14.9777C122.725 14.7353 123.057 14.3488 123.353 13.8183C123.057 13.2737 122.721 12.8837 122.351 12.6448C121.977 12.4059 121.566 12.2865 121.121 12.2865C120.758 12.2865 120.444 12.3497 120.186 12.4797C119.928 12.6097 119.734 12.7889 119.599 13.0208C119.465 13.2526 119.397 13.5161 119.397 13.8183C119.397 14.1204 119.465 14.3769 119.599 14.6053C119.734 14.8337 119.928 15.0164 120.186 15.1463C120.444 15.2763 120.754 15.3396 121.121 15.3396Z"
    fill="white"/>
  <path
    d="M128.713 16.7063C128.093 16.7063 127.54 16.5974 127.054 16.3725C126.571 16.1512 126.19 15.842 125.913 15.4485C125.637 15.055 125.498 14.5912 125.498 14.0677C125.498 13.5443 125.629 13.091 125.891 12.701C126.153 12.3111 126.511 12.0019 126.975 11.7805C127.435 11.5592 127.966 11.4468 128.564 11.4468C129.162 11.4468 129.678 11.5733 130.115 11.8227C130.553 12.0722 130.889 12.427 131.128 12.8802C131.368 13.3334 131.487 13.8675 131.487 14.4823H126.463V13.604H130.874L130.261 13.9307C130.242 13.6005 130.16 13.3159 130.011 13.0805C129.861 12.8451 129.667 12.6624 129.416 12.5359C129.166 12.4094 128.874 12.3462 128.534 12.3462C128.175 12.3462 127.865 12.413 127.596 12.55C127.33 12.687 127.121 12.8767 126.968 13.1226C126.818 13.3686 126.743 13.6567 126.743 13.994C126.743 14.3664 126.833 14.6861 127.012 14.9601C127.192 15.2307 127.446 15.4415 127.775 15.5855C128.104 15.7296 128.497 15.8033 128.949 15.8033C129.356 15.8033 129.775 15.7436 130.201 15.6206C130.627 15.5012 131.005 15.329 131.33 15.1112V15.9439C131.005 16.1793 130.605 16.3655 130.138 16.5025C129.67 16.6395 129.192 16.7063 128.71 16.7063H128.713Z"
    fill="white"/>
  <path
    d="M132.239 11.5697H133.465L133.786 13.3756V16.5798H132.56V13.207L132.239 11.5697ZM135.902 11.4468C136.403 11.4468 136.833 11.5416 137.185 11.7314C137.536 11.9211 137.805 12.1916 137.988 12.5429C138.175 12.8943 138.265 13.3194 138.265 13.8148V16.5868H137.039V14.001C137.039 13.474 136.908 13.0805 136.65 12.81C136.392 12.5394 136.007 12.4059 135.506 12.4059C135.162 12.4059 134.859 12.4797 134.598 12.6238C134.336 12.7678 134.134 12.9716 133.996 13.2316C133.854 13.4916 133.783 13.7972 133.783 14.145L133.349 13.9237C133.405 13.4037 133.551 12.961 133.783 12.5956C134.015 12.2303 134.314 11.9492 134.676 11.7489C135.039 11.5522 135.45 11.4538 135.902 11.4538V11.4468Z"
    fill="white"/>
  <path
    d="M145.383 14.6052C145.319 15.0198 145.147 15.3816 144.863 15.6978C144.579 16.014 144.22 16.26 143.779 16.4356C143.338 16.6113 142.848 16.7027 142.31 16.7027C141.693 16.7027 141.151 16.5938 140.684 16.3689C140.216 16.1476 139.85 15.8384 139.585 15.4449C139.319 15.0514 139.188 14.5911 139.188 14.0712C139.188 13.5512 139.319 13.0944 139.585 12.6974C139.85 12.3004 140.213 11.9948 140.684 11.7734C141.155 11.5521 141.693 11.4397 142.31 11.4397C142.852 11.4397 143.342 11.5275 143.779 11.7067C144.217 11.8858 144.579 12.1318 144.863 12.4445C145.147 12.7607 145.319 13.1296 145.383 13.5477H144.149C144.063 13.1682 143.85 12.8731 143.517 12.6623C143.185 12.448 142.781 12.3426 142.31 12.3426C141.932 12.3426 141.603 12.4129 141.319 12.5499C141.035 12.6869 140.818 12.8872 140.665 13.1436C140.512 13.4001 140.433 13.7093 140.433 14.0676C140.433 14.426 140.512 14.7282 140.665 14.9881C140.818 15.2481 141.039 15.4484 141.319 15.5854C141.603 15.726 141.932 15.7927 142.31 15.7927C142.788 15.7927 143.192 15.6838 143.525 15.466C143.858 15.2481 144.067 14.9565 144.145 14.5982H145.379L145.383 14.6052Z"
    fill="white"/>
  <path
    d="M149.226 16.7063C148.605 16.7063 148.052 16.5974 147.566 16.3725C147.084 16.1512 146.703 15.842 146.426 15.4485C146.149 15.055 146.011 14.5912 146.011 14.0677C146.011 13.5443 146.142 13.091 146.403 12.701C146.665 12.3111 147.024 12.0019 147.488 11.7805C147.947 11.5592 148.478 11.4468 149.076 11.4468C149.675 11.4468 150.19 11.5733 150.628 11.8227C151.065 12.0722 151.402 12.427 151.641 12.8802C151.88 13.3334 152 13.8675 152 14.4823H146.975V13.604H151.387L150.774 13.9307C150.755 13.6005 150.673 13.3159 150.523 13.0805C150.374 12.8451 150.179 12.6624 149.929 12.5359C149.678 12.4094 149.387 12.3462 149.047 12.3462C148.688 12.3462 148.377 12.413 148.108 12.55C147.843 12.687 147.633 12.8767 147.48 13.1226C147.331 13.3686 147.256 13.6567 147.256 13.994C147.256 14.3664 147.346 14.6861 147.525 14.9601C147.704 15.2307 147.959 15.4415 148.288 15.5855C148.617 15.7296 149.009 15.8033 149.461 15.8033C149.869 15.8033 150.288 15.7436 150.714 15.6206C151.14 15.5012 151.518 15.329 151.843 15.1112V15.9439C151.518 16.1793 151.118 16.3655 150.65 16.5025C150.183 16.6395 149.704 16.7063 149.222 16.7063H149.226Z"
    fill="white"/>
  <path
    d="M89.1573 24.0103H90.4208C90.4582 24.2773 90.5779 24.5092 90.776 24.7094C90.9741 24.9097 91.2358 25.0643 91.5648 25.1732C91.89 25.2821 92.2676 25.3383 92.6938 25.3383C93.3293 25.3383 93.8303 25.247 94.2004 25.0608C94.5705 24.8746 94.7574 24.6216 94.7574 24.3019C94.7574 24.0419 94.649 23.8487 94.4359 23.7187C94.2228 23.5887 93.834 23.4903 93.277 23.4271L91.7517 23.2409C90.8956 23.1355 90.275 22.9352 89.89 22.6436C89.5049 22.352 89.3105 21.9374 89.3105 21.3999C89.3105 20.9923 89.4414 20.641 89.6993 20.3423C89.9573 20.0437 90.3274 19.8153 90.8059 19.6502C91.2844 19.4851 91.8414 19.4078 92.4844 19.4078C93.1275 19.4078 93.6807 19.4956 94.1705 19.6748C94.6602 19.8505 95.0527 20.0999 95.3443 20.4126C95.6359 20.7288 95.7967 21.0977 95.8191 21.5228H94.5555C94.5256 21.2874 94.4172 21.0837 94.2415 20.9115C94.0658 20.7393 93.8228 20.6058 93.52 20.5075C93.2172 20.4091 92.862 20.3599 92.4545 20.3599C91.8751 20.3599 91.4153 20.4477 91.0676 20.6269C90.7199 20.8026 90.548 21.045 90.548 21.3542C90.548 21.5896 90.6489 21.7723 90.8545 21.8988C91.0601 22.0252 91.4153 22.1201 91.9237 22.1869L93.4677 22.3906C94.1032 22.4749 94.6041 22.5839 94.9705 22.7209C95.3369 22.8614 95.5986 23.0441 95.7556 23.2795C95.9126 23.5114 95.9911 23.8135 95.9911 24.1789C95.9911 24.604 95.8528 24.9765 95.5761 25.2962C95.2995 25.6159 94.9107 25.8618 94.4135 26.034C93.9163 26.2061 93.3331 26.294 92.6639 26.294C91.9947 26.294 91.3891 26.1991 90.8695 26.0059C90.3498 25.8126 89.9423 25.5456 89.6395 25.2048C89.3367 24.864 89.1759 24.4635 89.1498 24.0103H89.1573Z"
    fill="white"/>
  <path
    d="M99.9649 26.2936C99.3182 26.2936 98.75 26.1847 98.264 25.9599C97.778 25.7385 97.3966 25.4294 97.1237 25.0359C96.8508 24.6424 96.7125 24.1821 96.7125 23.6621C96.7125 23.1422 96.8508 22.6784 97.1237 22.2849C97.3966 21.8914 97.778 21.5857 98.264 21.3644C98.75 21.1431 99.3182 21.0306 99.9649 21.0306C100.612 21.0306 101.18 21.1431 101.666 21.3644C102.152 21.5857 102.533 21.8914 102.806 22.2849C103.079 22.6784 103.217 23.1351 103.217 23.6621C103.217 24.1891 103.079 24.6389 102.806 25.0359C102.533 25.4329 102.152 25.7385 101.666 25.9599C101.18 26.1812 100.612 26.2936 99.9649 26.2936ZM99.9649 25.3907C100.38 25.3907 100.735 25.3204 101.034 25.1764C101.333 25.0359 101.565 24.8356 101.726 24.5791C101.89 24.3226 101.972 24.017 101.972 23.6621C101.972 23.3073 101.89 23.0016 101.726 22.7452C101.561 22.4887 101.333 22.2884 101.034 22.1479C100.735 22.0073 100.38 21.9336 99.9649 21.9336C99.55 21.9336 99.2023 22.0038 98.8995 22.1479C98.5967 22.2919 98.3649 22.4887 98.2004 22.7452C98.0359 23.0016 97.9574 23.3073 97.9574 23.6621C97.9574 24.017 98.0397 24.3226 98.2004 24.5791C98.3649 24.8356 98.5967 25.0359 98.8995 25.1764C99.2023 25.3169 99.5575 25.3907 99.9649 25.3907Z"
    fill="white"/>
  <path d="M104.216 19.3517H105.442V26.1712H104.216V19.3517Z"
        fill="white"/>
  <path
    d="M108.975 26.2942C108.485 26.2942 108.07 26.1993 107.726 26.0096C107.382 25.8199 107.12 25.5493 106.941 25.1945C106.758 24.8396 106.668 24.418 106.668 23.9297V21.1576H107.894V23.7505C107.894 24.2705 108.021 24.664 108.275 24.9345C108.53 25.2015 108.896 25.3385 109.375 25.3385C109.719 25.3385 110.018 25.2683 110.264 25.1277C110.511 24.9872 110.705 24.7834 110.844 24.5199C110.982 24.2564 111.049 23.9508 111.049 23.6029L111.472 23.8243C111.423 24.3372 111.285 24.7799 111.057 25.1488C110.829 25.5177 110.537 25.8023 110.182 25.999C109.823 26.1958 109.423 26.2942 108.975 26.2942ZM111.36 26.1712L111.049 24.3653V21.1611H112.276V24.5445L112.586 26.1747H111.36V26.1712Z"
    fill="white"/>
  <path
    d="M113.034 22.043V21.5195L114.174 21.2454L114.683 19.8471H115.401V21.1576H117.879V22.043H115.401V24.2107C115.401 24.6288 115.498 24.9239 115.689 25.0926C115.879 25.2612 116.193 25.3455 116.627 25.3455C116.904 25.3455 117.147 25.3174 117.363 25.2612C117.576 25.205 117.782 25.1242 117.976 25.0188V25.9674C117.812 26.0447 117.584 26.1185 117.285 26.1887C116.986 26.259 116.679 26.2941 116.365 26.2941C115.846 26.2941 115.423 26.2133 115.102 26.0517C114.78 25.8901 114.548 25.6652 114.399 25.3771C114.253 25.0926 114.178 24.7623 114.178 24.3899V22.043H113.038H113.034Z"
    fill="white"/>
  <path
    d="M119.48 20.4934C119.248 20.4934 119.057 20.4336 118.904 20.3107C118.754 20.1912 118.68 20.0331 118.68 19.8364C118.68 19.6396 118.754 19.485 118.904 19.3621C119.053 19.2426 119.248 19.1794 119.48 19.1794C119.711 19.1794 119.913 19.2391 120.059 19.3621C120.205 19.485 120.28 19.6396 120.28 19.8364C120.28 20.0331 120.205 20.1877 120.059 20.3107C119.913 20.4301 119.719 20.4934 119.48 20.4934ZM118.866 21.1223L119.48 21.2277L120.093 21.1223V26.171H118.866V21.1223Z"
    fill="white"/>
  <path
    d="M124.34 26.2936C123.693 26.2936 123.125 26.1847 122.639 25.9599C122.153 25.7385 121.771 25.4294 121.498 25.0359C121.225 24.6424 121.087 24.1821 121.087 23.6621C121.087 23.1422 121.225 22.6784 121.498 22.2849C121.771 21.8914 122.153 21.5857 122.639 21.3644C123.125 21.1431 123.693 21.0306 124.34 21.0306C124.986 21.0306 125.555 21.1431 126.041 21.3644C126.526 21.5857 126.908 21.8914 127.181 22.2849C127.454 22.6784 127.592 23.1351 127.592 23.6621C127.592 24.1891 127.454 24.6389 127.181 25.0359C126.908 25.4329 126.526 25.7385 126.041 25.9599C125.555 26.1812 124.986 26.2936 124.34 26.2936ZM124.34 25.3907C124.754 25.3907 125.11 25.3204 125.409 25.1764C125.708 25.0359 125.94 24.8356 126.1 24.5791C126.265 24.3226 126.347 24.017 126.347 23.6621C126.347 23.3073 126.265 23.0016 126.1 22.7452C125.936 22.4887 125.708 22.2884 125.409 22.1479C125.11 22.0073 124.754 21.9336 124.34 21.9336C123.925 21.9336 123.577 22.0038 123.274 22.1479C122.971 22.2919 122.739 22.4887 122.575 22.7452C122.411 23.0016 122.332 23.3073 122.332 23.6621C122.332 24.017 122.414 24.3226 122.575 24.5791C122.739 24.8356 122.971 25.0359 123.274 25.1764C123.577 25.3169 123.932 25.3907 124.34 25.3907Z"
    fill="white"/>
  <path
    d="M128.336 21.1568H129.562L129.883 22.9627V26.1669H128.657V22.7941L128.336 21.1568ZM131.999 21.0339C132.5 21.0339 132.93 21.1287 133.282 21.3185C133.633 21.5082 133.902 21.7787 134.085 22.13C134.272 22.4814 134.362 22.9065 134.362 23.4019V26.1739H133.136V23.5881C133.136 23.0611 133.005 22.6676 132.743 22.3971C132.482 22.1265 132.1 21.993 131.599 21.993C131.252 21.993 130.949 22.0668 130.691 22.2108C130.429 22.3549 130.231 22.5587 130.089 22.8187C129.947 23.0786 129.876 23.3843 129.876 23.7321L129.442 23.5108C129.498 22.9908 129.644 22.5481 129.876 22.1827C130.108 21.8174 130.407 21.5363 130.769 21.336C131.132 21.1393 131.543 21.0409 131.996 21.0409L131.999 21.0339Z"
    fill="white"/>
  <path
    d="M141.114 24.6464C141.114 24.9837 141.013 25.2753 140.811 25.5247C140.609 25.7742 140.306 25.9639 139.895 26.0974C139.487 26.2309 138.975 26.2977 138.358 26.2977C137.742 26.2977 137.173 26.2239 136.71 26.0728C136.246 25.9218 135.884 25.711 135.629 25.4369C135.375 25.1629 135.241 24.8467 135.218 24.4848H136.463C136.5 24.6745 136.605 24.8396 136.77 24.9837C136.934 25.1277 137.155 25.2402 137.428 25.3175C137.701 25.3947 138.015 25.4334 138.366 25.4334C138.874 25.4334 139.256 25.3772 139.514 25.2612C139.772 25.1453 139.899 24.9696 139.899 24.7342C139.899 24.5761 139.813 24.4532 139.641 24.3724C139.469 24.288 139.144 24.2283 138.665 24.1862L137.618 24.0983C137.054 24.0526 136.605 23.9543 136.28 23.8102C135.955 23.6662 135.719 23.487 135.581 23.2797C135.443 23.0724 135.375 22.8476 135.375 22.6122C135.375 22.2714 135.487 21.9833 135.715 21.7549C135.943 21.5265 136.257 21.3474 136.657 21.2279C137.061 21.1085 137.529 21.0452 138.063 21.0452C138.598 21.0452 139.11 21.119 139.544 21.263C139.977 21.4071 140.321 21.6073 140.579 21.8638C140.837 22.1203 140.983 22.4189 141.013 22.7527H139.768C139.742 22.6157 139.667 22.4857 139.547 22.3592C139.424 22.2327 139.241 22.1273 138.99 22.0395C138.744 21.9552 138.411 21.9095 137.996 21.9095C137.555 21.9095 137.211 21.9622 136.964 22.0676C136.717 22.173 136.59 22.3311 136.59 22.5384C136.59 22.6684 136.665 22.7773 136.818 22.8686C136.968 22.96 137.248 23.0232 137.656 23.0584L139.001 23.1743C139.544 23.22 139.966 23.3113 140.269 23.4448C140.572 23.5783 140.788 23.747 140.916 23.9543C141.043 24.1616 141.102 24.3934 141.102 24.6534L141.114 24.6464Z"
    fill="white"/>
  <path
    d="M149.181 5.65889C147.63 5.65889 146.374 4.47137 146.378 3.00981C146.381 1.55528 147.641 0.378307 149.189 0.378307C150.737 0.378307 151.996 1.56231 151.996 3.01684C151.996 4.47488 150.733 5.6624 149.181 5.65889ZM151.645 3.01333C151.645 1.73798 150.542 0.70505 149.185 0.70505C147.828 0.70505 146.725 1.74149 146.725 3.01684C146.725 4.2957 147.824 5.32863 149.181 5.33214C150.546 5.33214 151.649 4.29922 151.645 3.01684V3.01333Z"
    fill="white"/>
  <path
    d="M149.75 3.23113C149.974 3.62112 150.195 4.00407 150.423 4.40811C150.232 4.40811 150.064 4.41162 149.895 4.40811C149.866 4.40811 149.832 4.36595 149.817 4.33433C149.645 4.02867 149.473 3.72301 149.309 3.41734C149.279 3.36113 149.245 3.34005 149.178 3.34356C149.024 3.34707 148.867 3.34356 148.699 3.34356V4.40811H148.191V1.64661C148.191 1.64661 148.202 1.63607 148.209 1.63607C148.639 1.63958 149.077 1.6185 149.503 1.65715C150.165 1.7239 150.381 2.19469 150.262 2.70764C150.209 2.93601 150.079 3.06249 149.757 3.23816L149.75 3.23113ZM148.699 2.95007C148.89 2.95007 149.077 2.95007 149.26 2.95007C149.305 2.95007 149.35 2.94304 149.395 2.9325C149.626 2.88683 149.768 2.72521 149.772 2.50036C149.776 2.25793 149.656 2.07524 149.421 2.04362C149.185 2.012 148.942 2.01903 148.699 2.00497V2.94655V2.95007Z"
    fill="white"/>
  <path d="M38.3112 0.24577V27H44.6852V0.24577H38.3112Z"
        fill="white"/>
  <path
    d="M24.1426 15.8244H-6.10352e-05V10.7933H24.1426C25.9221 10.7933 27.3726 9.52144 27.3726 7.958C27.3726 6.39455 25.9221 5.12271 24.1426 5.12271H-6.10352e-05V0.0915833H24.1426C28.8755 0.0915833 32.7261 3.619 32.7261 7.958C32.7261 12.297 28.8755 15.8244 24.1426 15.8244Z"
    fill="white"/>
  <path
    d="M72.7121 16.1406H57.2762C52.5433 16.1406 48.6927 12.6132 48.6927 8.27417C48.6927 3.93518 52.5433 0.407764 57.2762 0.407764H80.7198V5.4389H57.2762C55.4967 5.4389 54.0462 6.71073 54.0462 8.27417C54.0462 9.83762 55.4967 11.1095 57.2762 11.1095H72.7121V16.1406Z"
    fill="white"/>
  <path
    d="M73.6132 26.8419H50.1509V21.8107H73.6132C75.3927 21.8107 76.8432 20.5389 76.8432 18.9755C76.8432 17.412 75.3927 16.1402 73.6132 16.1402H58.9175V11.109H73.6132C78.346 11.109 82.1966 14.6365 82.1966 18.9755C82.1966 23.3145 78.346 26.8419 73.6132 26.8419Z"
    fill="white"/>
  <path
    d="M24.9652 26.5266H0.00378418V21.4955H24.9652C26.8568 21.4955 28.3933 20.2237 28.3933 18.6602C28.3933 17.0968 26.8531 15.8249 24.9652 15.8249H0.00378418V10.7938H24.9652C29.8102 10.7938 33.7505 14.3212 33.7505 18.6602C33.7505 22.9992 29.8102 26.5266 24.9652 26.5266Z"
    fill="white"/>
</svg>
