<svg width="30" height="30" viewBox="0 0 35 35" fill="none"
     xmlns="http://www.w3.org/2000/svg">
  <path
    d="M7.29169 14.5833L9.84788 16.6284C10.4573 17.1159 11.3425 17.0371 11.8564 16.4499L16.0417 11.6667"
    stroke="white" stroke-width="1.5" stroke-linecap="round"
    stroke-linejoin="round"/>
  <path
    d="M20.4167 27.7083V10.2083M20.4167 27.7083H23.3334M20.4167 27.7083H13.125M20.4167 10.2083C20.4167 6.98667 17.805 4.375 14.5834 4.375H8.75002C5.52836 4.375 2.91669 6.98667 2.91669 10.2083V21.875C2.91669 24.5951 4.7785 26.8804 7.29729 27.526M20.4167 10.2083H25.0966C25.8376 10.2083 26.5509 10.4904 27.0915 10.9972L31.1615 14.8129C31.7497 15.3643 32.0834 16.1344 32.0834 16.9407V24.7917C32.0834 26.4025 30.7776 27.7083 29.1667 27.7083M23.3334 27.7083C23.3334 29.3192 24.6391 30.625 26.25 30.625C27.8609 30.625 29.1667 29.3192 29.1667 27.7083M23.3334 27.7083C23.3334 26.0975 24.6391 24.7917 26.25 24.7917C27.8609 24.7917 29.1667 26.0975 29.1667 27.7083M13.125 27.7083C13.125 29.3192 11.8192 30.625 10.2084 30.625C8.59752 30.625 7.29169 29.3192 7.29169 27.7083C7.29169 27.6471 7.29357 27.5863 7.29729 27.526M13.125 27.7083C13.125 26.0975 11.8192 24.7917 10.2084 24.7917C8.65876 24.7917 7.39141 26 7.29729 27.526"
    stroke="white" stroke-width="1.5"/>
</svg>
